# xmcd CD database file
#
# Track frame offsets:
#	150
#	13715
#	27502
#	40930
#	53187
#	67280
#	81790
#	96740
#	110742
#	126537
#	139397
#	154047
#	169765
#	184755
#	197920
#	210962
#	226185
#	239687
#
# Disc length: 3389 seconds
#
# Revision: 0
# Processed by: cddbd v1.5.1PL0 Copyright (c) Steve Scherf et al.
# Submitted via: CDex 1.51
#
DISCID=100d3b12
DTITLE=Billie Holiday - Fine And Mellow
DYEAR=1996
DGENRE=Jazz
TTITLE0=What a Little Moonlight Can Do
TTITLE1=Miss Brown To You
TTITLE2=Summertime
TTITLE3=Billie's Blues
TTITLE4=Easy Livin'
TTITLE5=(This is) My Last Affair
TTITLE6=He's Funny That Way
TTITLE7=My Man
TTITLE8=I Cover The Waterfront
TTITLE9=Sugar (That Sugar Baby O'Mine)
TTITLE10=Strange Fruit
TTITLE11=Yesterdays
TTITLE12=Fine And Mellow
TTITLE13=I Gotta Right To Sing The Blues
TTITLE14=Them There Eyes
TTITLE15=Love Or Leave Me
TTITLE16=God Bless The Child
TTITLE17=Trav'lin' Light
EXTD=YEAR: 1996
EXTT0=
EXTT1=
EXTT2=
EXTT3=
EXTT4=
EXTT5=
EXTT6=
EXTT7=
EXTT8=
EXTT9=
EXTT10=
EXTT11=
EXTT12=
EXTT13=
EXTT14=
EXTT15=
EXTT16=
EXTT17=
PLAYORDER=
